<svg xmlns="http://www.w3.org/2000/svg" xmlns:xlink="http://www.w3.org/1999/xlink" width="18px" height="18px"
     viewBox="0 0 18 18" version="1.1">
    <g id="surface1">
        <path style=" stroke:none;fill-rule:nonzero;fill:rgb(17.254902%,98.823529%,90.980393%);fill-opacity:1;"
              d="M 6.152344 2.417969 C 4.261719 3.507812 2.726562 4.40625 2.734375 4.414062 C 2.746094 4.421875 3.179688 4.679688 3.703125 4.984375 C 4.523438 5.460938 4.660156 5.53125 4.699219 5.515625 C 4.738281 5.496094 11.539062 1.574219 11.554688 1.5625 C 11.566406 1.550781 9.621094 0.429688 9.597656 0.433594 C 9.589844 0.433594 8.035156 1.324219 6.152344 2.417969 Z M 6.152344 2.417969 "/>
        <path style=" stroke:none;fill-rule:nonzero;fill:rgb(17.254902%,98.823529%,90.980393%);fill-opacity:1;"
              d="M 7.734375 4.070312 L 6.765625 4.632812 L 6.765625 7.96875 L 6.8125 7.941406 C 6.925781 7.882812 8.683594 6.863281 8.699219 6.847656 C 8.707031 6.839844 8.710938 6.082031 8.707031 5.171875 L 8.703125 3.507812 Z M 7.734375 4.070312 "/>
        <path style=" stroke:none;fill-rule:nonzero;fill:rgb(17.254902%,98.823529%,90.980393%);fill-opacity:1;"
              d="M 8.042969 7.53125 C 6.160156 8.621094 4.613281 9.515625 4.601562 9.53125 C 4.585938 9.542969 4.914062 9.742188 5.535156 10.105469 C 6.0625 10.414062 6.503906 10.664062 6.515625 10.664062 C 6.546875 10.664062 13.402344 6.710938 13.402344 6.695312 C 13.402344 6.6875 13.003906 6.453125 12.519531 6.171875 C 12.035156 5.890625 11.597656 5.636719 11.550781 5.609375 L 11.464844 5.558594 Z M 8.042969 7.53125 "/>
        <path style=" stroke:none;fill-rule:nonzero;fill:rgb(17.254902%,98.823529%,90.980393%);fill-opacity:1;"
              d="M 9.679688 9.152344 L 8.714844 9.714844 L 8.722656 13.160156 L 9.683594 13.71875 C 10.210938 14.023438 10.652344 14.273438 10.664062 14.273438 C 10.675781 14.273438 10.683594 13.097656 10.683594 11.429688 C 10.683594 9.867188 10.675781 8.589844 10.667969 8.589844 C 10.65625 8.589844 10.214844 8.84375 9.679688 9.152344 Z M 9.679688 9.152344 "/>
    </g>
</svg>
